<svg xmlns="http://www.w3.org/2000/svg" xml:space="preserve" width="655.359" height="655.359" style="shape-rendering:geometricPrecision;text-rendering:geometricPrecision;image-rendering:optimizeQuality;fill-rule:evenodd;clip-rule:evenodd" viewBox="0 0 6.827 6.827"><defs><style>.fil2{fill:none}.fil3{fill:#fff3e0}</style></defs><g id="Layer_x0020_1"><path style="fill:#f06292" d="M5.823 2.476v3.481h-4.82v-3.48z"/><path d="M1.003 1.405h4.82v1.071h-4.82V1.405z" style="fill:#ec407a"/><g id="_488778736"><path id="_488779288" class="fil2" d="M0 0h6.827v6.827H0z"/><path id="_488779072" class="fil2" d="M.853.853h5.12v5.12H.853z"/></g><g id="_488778232"><path id="_488778376" class="fil3" d="m3.566 5.29-.002-.032v-.052a.9.9 0 0 1 .093-.405c.063-.126.16-.248.29-.364l.107-.096a3.57 3.57 0 0 0 .296-.28c.04-.047.069-.1.087-.16a.747.747 0 0 0 .027-.214.446.446 0 0 0-.084-.292.293.293 0 0 0-.24-.1c-.107 0-.186.037-.239.112-.053.075-.08.189-.08.341a6.812 6.812 0 0 0 .004.073h-.237a.781.781 0 0 0-.003-.079c0-.213.049-.377.147-.493a.52.52 0 0 1 .42-.173c.177 0 .316.052.416.158.1.105.15.251.15.44 0 .096-.01.18-.03.253a.663.663 0 0 1-.093.203c-.043.067-.138.16-.287.28l-.084.069a1.74 1.74 0 0 0-.316.32.5.5 0 0 0-.096.266h.924v.226l-1.17-.002z"/><path id="_488778016" class="fil3" d="m2.093 5.29-.002-.032v-.052a.9.9 0 0 1 .093-.405c.063-.126.16-.248.29-.364l.107-.096a3.57 3.57 0 0 0 .296-.28c.04-.047.069-.1.087-.16a.747.747 0 0 0 .027-.214.446.446 0 0 0-.084-.292.293.293 0 0 0-.24-.1c-.107 0-.187.037-.24.112-.052.075-.079.189-.079.341a6.044 6.044 0 0 0 .003.073h-.236a.784.784 0 0 0-.003-.079c0-.213.049-.377.147-.493a.52.52 0 0 1 .42-.173c.177 0 .316.052.416.158.1.105.15.251.15.44 0 .096-.01.18-.03.253a.663.663 0 0 1-.093.203c-.043.067-.138.16-.287.28l-.084.069a1.74 1.74 0 0 0-.316.32.5.5 0 0 0-.096.266h.924v.226l-1.17-.002z"/></g><path d="M1.673 1.2a.134.134 0 0 0-.268 0v.553a.134.134 0 0 0 .268 0V1.2zm2.812 0a.134.134 0 0 0-.268 0v.553a.134.134 0 0 0 .268 0V1.2zm-.938 0a.134.134 0 0 0-.268 0v.553a.134.134 0 0 0 .268 0V1.2zm-.937 0a.134.134 0 0 0-.268 0v.553a.134.134 0 0 0 .268 0V1.2zm2.812 0a.134.134 0 0 0-.268 0v.553a.134.134 0 0 0 .268 0V1.2z" style="fill:#424242;fill-rule:nonzero"/></g></svg>